# xmcd CD database file
#
# Track frame offsets:
#	150
#	22854
#	38062
#	60011
#	80704
#	97609
#	113660
#	135240
#	162029
#	180436
#	197595
#
# Disc length: 2850 seconds
#
# Revision: 0
# Processed by: cddbd v1.5.2PL0 Copyright (c) Steve Scherf et al.
# Submitted via: CDex 1.51
#
DISCID=6b0b200b
DTITLE=Robin Rogers - Back In The Fire
DYEAR=2010
DGENRE=Blues
TTITLE0=Baby Bye-Bye
TTITLE1=Second Time Around
TTITLE2=You Don't Know
TTITLE3=Need Your Love So Bad
TTITLE4=The Plan
TTITLE5=I Know I Done Wrong
TTITLE6=Ocean of Tears
TTITLE7=Don't Walk Away Run
TTITLE8=Hittin' On Nothin'
TTITLE9=Yesterday's Blues
TTITLE10=Robin Rogers - What We Are Worth
EXTD=YEAR: 2010
EXTT0=
EXTT1=
EXTT2=
EXTT3=
EXTT4=
EXTT5=
EXTT6=
EXTT7=
EXTT8=
EXTT9=
EXTT10=
PLAYORDER=
